<svg width="112" height="47" viewBox="0 0 112 47" fill="none" xmlns="http://www.w3.org/2000/svg">
<path d="M0.2 42.408H52.68V46.824H0.2V42.408ZM23.688 30.056H28.936V44.264H23.688V30.056ZM6.6 0.359997H46.152V17.896H11.976V29.48H6.728V13.672H40.904V4.712H6.6V0.359997ZM6.728 27.24H47.496V31.592H6.728V27.24ZM64.643 1.896H101.891V6.248H64.643V1.896ZM59.075 41.448H111.363V45.864H59.075V41.448ZM79.427 20.776H84.675V43.688H79.427V20.776ZM99.843 1.896H105.155V7.592C105.155 9.98133 105.112 12.4987 105.027 15.144C104.984 17.7893 104.814 20.6907 104.515 23.848C104.259 27.0053 103.768 30.5253 103.043 34.408L97.667 33.768C98.7763 28.2213 99.4163 23.3573 99.587 19.176C99.7577 14.952 99.843 11.0907 99.843 7.592V1.896Z" fill="black"/>
</svg>
